<svg width="439" height="201" viewBox="0 0 439 201" fill="none" xmlns="http://www.w3.org/2000/svg">
<path d="M42.7361 0V196.502H0V0H42.7361Z" fill="black"/>
<path d="M111.607 135.42C111.607 139.366 112.315 143.075 113.732 146.548C115.148 149.862 117.037 152.782 119.398 155.307C121.917 157.833 124.829 159.806 128.134 161.226C131.597 162.647 135.297 163.357 139.232 163.357C143.009 163.357 146.551 162.647 149.857 161.226C153.32 159.806 156.232 157.833 158.593 155.307C161.111 152.782 163.079 149.862 164.496 146.548C166.07 143.233 166.857 139.682 166.857 135.894C166.857 132.106 166.07 128.555 164.496 125.24C163.079 121.768 161.111 118.769 158.593 116.244C156.232 113.719 153.32 111.746 149.857 110.325C146.551 108.905 143.009 108.194 139.232 108.194C135.297 108.194 131.597 108.905 128.134 110.325C124.829 111.746 121.917 113.719 119.398 116.244C117.037 118.769 115.148 121.689 113.732 125.004C112.315 128.16 111.607 131.633 111.607 135.42ZM165.44 75.0495H208.412V196.502H165.44V183.007C156.31 194.529 143.954 200.29 128.371 200.29C119.556 200.29 111.449 198.711 104.051 195.555C96.653 192.24 90.1993 187.663 84.6901 181.823C79.1808 175.984 74.8521 169.118 71.7039 161.226C68.7132 153.335 67.2178 144.733 67.2178 135.42C67.2178 126.74 68.7132 118.532 71.7039 110.799C74.6947 102.907 78.866 96.0412 84.2178 90.2014C89.5697 84.3616 95.9447 79.7845 103.343 76.47C110.741 72.9976 118.926 71.2615 127.898 71.2615C143.009 71.2615 155.523 76.5489 165.44 87.1237V75.0495Z" fill="black"/>
<path d="M280.23 0V196.502H237.494V0H280.23Z" fill="black"/>
<path d="M352.171 75.0495V143.47C352.171 158.464 359.411 165.961 373.893 165.961C388.374 165.961 395.615 158.464 395.615 143.47V75.0495H438.351V151.756C438.351 168.171 432.921 180.482 422.059 188.689C411.356 196.896 395.3 201 373.893 201C352.485 201 336.351 196.896 325.49 188.689C314.786 180.482 309.434 168.171 309.434 151.756V75.0495H352.171Z" fill="black"/>
<path d="M109.053 122.952C109.053 107.009 122.183 94.0851 138.378 94.0851H148.154C164.349 94.0851 177.479 107.009 177.479 122.952V142.197C177.479 158.14 164.349 171.064 148.154 171.064H138.378C122.183 171.064 109.053 158.14 109.053 142.197V122.952Z" fill="black"/>
<path d="M109.053 122.188C109.053 111.391 117.669 102.638 128.298 102.638V102.638C138.926 102.638 147.543 111.391 147.543 122.188V151.514C147.543 162.311 138.926 171.064 128.298 171.064V171.064C117.669 171.064 109.053 162.311 109.053 151.514V122.188Z" fill="#E5E5E5"/>
<path fill-rule="evenodd" clip-rule="evenodd" d="M156.681 143.266C139.495 137.955 120.899 137.91 104.246 143.257L102.638 138.956C120.358 133.266 140.065 133.333 158.234 138.948L156.681 143.266Z" fill="black" stroke="black" stroke-width="1.5"/>
<path fill-rule="evenodd" clip-rule="evenodd" d="M121.394 111.267C122.242 111.833 122.471 112.98 121.905 113.828C120.564 115.838 119.61 119.27 118.997 122.435C118.7 123.973 118.496 125.373 118.367 126.388C118.303 126.894 118.258 127.303 118.228 127.583C118.214 127.723 118.203 127.831 118.196 127.902L118.189 127.982L118.187 128M118.187 128C118.1 129.016 117.205 129.773 116.189 129.685C115.173 129.598 114.42 128.703 114.508 127.687L116.34 127.845C114.508 127.687 114.508 127.687 114.508 127.687L114.509 127.676L114.511 127.65L114.52 127.554C114.528 127.471 114.539 127.352 114.555 127.2C114.587 126.896 114.636 126.459 114.704 125.923C114.84 124.85 115.055 123.369 115.371 121.734C115.987 118.551 117.043 114.461 118.833 111.778C119.399 110.93 120.546 110.701 121.394 111.267" fill="black"/>
<path d="M121.394 111.267C122.242 111.833 122.471 112.98 121.905 113.828C120.564 115.838 119.61 119.27 118.997 122.435C118.7 123.973 118.496 125.373 118.367 126.388C118.303 126.894 118.258 127.303 118.228 127.583C118.214 127.723 118.203 127.831 118.196 127.902L118.189 127.982L118.187 128M121.394 111.267L118.187 128M121.394 111.267C120.546 110.701 119.399 110.93 118.833 111.778C117.043 114.461 115.987 118.551 115.371 121.734C115.055 123.369 114.84 124.85 114.704 125.923C114.636 126.459 114.587 126.896 114.555 127.2C114.539 127.352 114.528 127.471 114.52 127.554L114.511 127.65L114.509 127.676L114.508 127.687M118.187 128C118.1 129.016 117.205 129.773 116.189 129.685C115.173 129.598 114.42 128.703 114.508 127.687M114.508 127.687L116.34 127.845C114.508 127.687 114.508 127.687 114.508 127.687Z" stroke="black" stroke-linecap="round"/>
</svg>
