<svg xmlns="http://www.w3.org/2000/svg" viewBox="0 0 100 125" x="0px" y="0px"><defs><style>.cls-1{fill:none;}</style></defs><title>Asset 902</title><g data-name="Layer 2"><g data-name="Layer 1"><rect class="cls-1" width="100" height="100"/><path d="M90.72,55.44,44.57,9.29A25,25,0,0,0,9.28,44.58L55.43,90.73A25,25,0,0,0,90.72,55.44Zm-46-12C36.1,52.05,34,60.54,34,60.54L13.64,40.21a18.86,18.86,0,0,1,0-26.56,18.82,18.82,0,0,1,26.57,0L60.53,34A40.67,40.67,0,0,0,44.68,43.48ZM85.57,63a2.65,2.65,0,0,1-3.74,0L64.14,45.32A2.64,2.64,0,0,1,66,40.81a2.68,2.68,0,0,1,1.87.77L85.57,59.27A2.65,2.65,0,0,1,85.57,63Z"/></g></g><text x="0" y="115" fill="#000000" font-size="5px" font-weight="bold" font-family="'Helvetica Neue', Helvetica, Arial-Unicode, Arial, Sans-serif">Created by Prashanth Rapolu</text><text x="0" y="120" fill="#000000" font-size="5px" font-weight="bold" font-family="'Helvetica Neue', Helvetica, Arial-Unicode, Arial, Sans-serif">from the Noun Project</text></svg>